<svg xmlns="http://www.w3.org/2000/svg" viewBox="0 0 32 32">
  <path d="M5.902 27.201 3.655 2h24.69l-2.25 25.197L15.985 30z" fill="#E44D26"/>
  <path d="M16 27.858l8.17-2.265 1.922-21.532H16z" fill="#F16529"/>
  <path d="M16 13.407h-4.09l-.282-3.165H16V7.151H8.879l.074.832.759 8.515H16zm0 8.636-.035.01-3.442-.93-.22-2.465H9.206l.433 4.852 6.326 1.755.035-.01z" fill="#EBEBEB"/>
  <path d="M15.969 13.407v3.091h3.806l-.36 4.009-3.446.93v3.216l6.332-1.755.047-.522.726-8.137.075-.832zm0-6.256v3.091h6.984l.058-.648.131-1.463.074-.98z" fill="#FFF"/>
</svg>
